<svg fill="none" height="432" viewBox="0 0 288 432" width="288" xmlns="http://www.w3.org/2000/svg"><path d="m1.46603 2.19946h285.0678v427.602h-285.0678z" fill="none" stroke-width="3"/><path d="m144 216c0-39.359 31.907-71.267 71.267-71.267 39.359 0 71.267 31.908 71.267 71.267 0 39.36-31.908 71.267-71.267 71.267-39.36 0-71.267-31.907-71.267-71.267z" fill="#1abcfe"/><path d="m1.46603 358.534c0-39.359 31.90727-71.267 71.26697-71.267h71.267v71.267c0 39.36-31.907 71.267-71.267 71.267-39.3597 0-71.26697-31.907-71.26697-71.267z" fill="#0acf83"/><path d="m144 2.19946v142.53354h71.267c39.36 0 71.267-31.907 71.267-71.2666 0-39.3596-31.907-71.26694-71.267-71.26694z" fill="#ff7262"/><path d="m1.46603 73.4664c0 39.3596 31.90727 71.2666 71.26697 71.2666h71.267v-142.53359h-71.267c-39.3597 0-71.26697 31.90729-71.26697 71.26699z" fill="#f24e1e"/><path d="m1.46603 216c0 39.36 31.90727 71.267 71.26697 71.267h71.267v-142.534h-71.267c-39.3597 0-71.26697 31.908-71.26697 71.267z" fill="#a259ff"/></svg>